<?xml version="1.0" encoding="UTF-8"?>
<svg width="32" height="32" version="1.1" viewBox="0 0 32 32" xmlns="http://www.w3.org/2000/svg">
  <path d="M16 2C8.268 2 2 8.268 2 16s6.268 14 14 14 14-6.268 14-14S23.732 2 16 2zm0 25.2c-6.188 0-11.2-5.012-11.2-11.2S9.812 4.8 16 4.8 27.2 9.812 27.2 16 22.188 27.2 16 27.2z" fill="#ff0000"/>
  <path d="M16 8c-4.412 0-8 3.588-8 8s3.588 8 8 8 8-3.588 8-8-3.588-8-8-8zm0 14.4c-3.536 0-6.4-2.864-6.4-6.4S12.464 9.6 16 9.6 22.4 12.464 22.4 16 19.536 22.4 16 22.4z" fill="#ff0000"/>
  <circle cx="16" cy="16" r="4" fill="#ff0000"/>
</svg>
